# xmcd
#
# Track frame offsets:
#	150
#	25005
#	43393
#	63273
#	85215
#	103528
#	124750
#	146041
#	162646
#	184000
#	201093
#	218840
#	234784
#	247176
#
# Disc length: 3638 seconds
#
# Revision: 1
# Processed by: cddbd v1.5.2PL0 Copyright (c) Steve Scherf et al.
# Submitted via: audiograbber 1.83.01
#
DISCID=c70e340e
DTITLE=Travis Tritt - The Calm After...
DYEAR=2013
DGENRE=Country
TTITLE0=Mudcat Moan Prelude - You Never Take Me Dancing
TTITLE1=I Wanna Feel Too Much
TTITLE2=Doesn't the Good Outweigh the Bad
TTITLE3=Sometimes Love Just Ain't Enough
TTITLE4=What If Love Hangs On
TTITLE5=Rub off on Me
TTITLE6=Stay with Me
TTITLE7=Something Stronger Than Me
TTITLE8=The Storm
TTITLE9=I Don't Know How I Got By
TTITLE10=The Pressure Is On
TTITLE11=Should've Listened
TTITLE12=High Time for Gettin' Down
TTITLE13=Somehow, Somewhere, Someway
EXTD=
EXTT0=
EXTT1=
EXTT2=
EXTT3=
EXTT4=
EXTT5=
EXTT6=
EXTT7=
EXTT8=
EXTT9=
EXTT10=
EXTT11=
EXTT12=
EXTT13=
PLAYORDER=
